<?xml version="1.0" encoding="UTF-8"?>
<svg version="1.1" xmlns="http://www.w3.org/2000/svg" width="500" height="500">
<path d="M0 0 C1.06367294 0.00222061 2.12734589 0.00444122 3.22325134 0.00672913 C5.02500572 0.00684242 5.02500572 0.00684242 6.86315918 0.00695801 C8.17042465 0.01211929 9.47769012 0.01728058 10.8245697 0.02259827 C12.16835477 0.02446253 13.51214052 0.02588639 14.85592651 0.02688599 C18.39873622 0.0307105 21.94150515 0.0405402 25.48429871 0.05158997 C29.09706572 0.06180552 32.7098393 0.06638392 36.32261658 0.07142639 C43.41573225 0.08216254 50.50882019 0.09923816 57.60191345 0.12025452 C58.24752575 1.55367559 58.89109259 2.98801805 59.53379822 4.42274475 C59.89240433 5.2213945 60.25101044 6.02004425 60.6204834 6.84289551 C61.79839528 9.5761807 62.70524307 12.32658589 63.53941345 15.18275452 C64.03441345 16.84564514 64.03441345 16.84564514 64.53941345 18.54212952 C64.89003845 19.72291077 65.24066345 20.90369202 65.60191345 22.12025452 C66.40532042 24.72728315 67.2219525 27.33010309 68.03941345 29.93275452 C68.46665815 31.2959852 68.89374039 32.65926682 69.32066345 34.02259827 C69.53335876 34.70177307 69.74605408 35.38094788 69.9651947 36.08070374 C70.58724607 38.07327166 71.2046923 40.06720578 71.82066345 42.06166077 C74.26119275 49.94780484 76.81142899 57.7896672 79.4393158 65.6153717 C81.24437283 71.00607141 82.95796701 76.41865199 84.60972595 81.85853577 C85.73440316 85.5558014 86.88457782 89.24483135 88.03941345 92.93275452 C88.35362244 93.93713562 88.35362244 93.93713562 88.67417908 94.96180725 C89.31649256 97.01470595 89.95915031 99.06749657 90.60191345 101.12025452 C95.32243684 116.19593511 95.32243684 116.19593511 97.60191345 123.62025452 C101.14866831 135.16150922 104.72503455 146.68454468 108.60191345 158.12025452 C111.41087495 150.76738472 113.8330313 143.31868619 116.17417908 135.80775452 C118.11182915 129.61307273 120.1515876 123.4575274 122.22691345 117.30775452 C124.55655776 110.38983584 126.69536117 103.46762188 128.6448822 96.43275452 C130.052658 91.56012646 131.6922727 86.77181447 133.3167572 81.96791077 C134.63327276 78.05629251 135.87658885 74.12376718 137.10191345 70.18275452 C137.30880798 69.51759827 137.51570251 68.85244202 137.72886658 68.16712952 C138.55847077 65.49482194 139.38535502 62.82168154 140.21080017 60.14808655 C142.61069858 52.37984165 145.07645789 44.64062592 147.66441345 36.93275452 C150.5196251 28.42214892 153.26427249 19.8870441 155.6995697 11.24525452 C155.88181091 10.59911194 156.06405212 9.95296936 156.2518158 9.2872467 C156.76223077 7.46718385 157.26623797 5.64532758 157.7698822 3.82337952 C158.60191345 1.12025452 158.60191345 1.12025452 159.60191345 0.12025452 C189.96191345 0.12025452 220.32191345 0.12025452 251.60191345 0.12025452 C251.60191345 89.88025452 251.60191345 179.64025452 251.60191345 272.12025452 C223.22191345 272.12025452 194.84191345 272.12025452 165.60191345 272.12025452 C163.7046301 270.22297117 164.45629118 266.87374609 164.44369507 264.35632324 C164.43875709 263.64084715 164.43381911 262.92537107 164.4287315 262.18821388 C164.41328231 259.77290372 164.40497594 257.35762028 164.39659119 254.942276 C164.38701848 253.21801007 164.37700877 251.49374652 164.36659241 249.76948547 C164.33947139 245.07342861 164.31850093 240.37736163 164.29859042 235.68126941 C164.2767751 230.7791627 164.2493647 225.87708746 164.22253418 220.9750061 C164.17254688 211.68544837 164.12763053 202.39587322 164.08451182 193.10628134 C164.03519093 182.53328258 163.98025377 171.96031537 163.92483222 161.3873471 C163.81091953 139.63167895 163.70410082 117.87598069 163.60191345 96.12025452 C162.64405181 98.98195813 161.68716277 101.84398092 160.7308197 104.70619202 C160.32748413 105.91070007 160.32748413 105.91070007 159.91600037 107.13954163 C158.06273314 112.6894479 156.29415566 118.25959526 154.59410095 123.85853577 C153.4694238 127.55580121 152.31927355 131.24483911 151.16441345 134.93275452 C150.9542157 135.60451721 150.74401794 136.27627991 150.52745056 136.96839905 C150.09940053 138.33626615 149.67125877 139.70410454 149.24302673 141.07191467 C148.19479469 144.4209881 147.14843524 147.77064636 146.10191345 151.12025452 C145.68525606 152.45359075 145.26858938 153.78692408 144.85191345 155.12025452 C144.64566345 155.78025452 144.43941345 156.44025452 144.22691345 157.12025452 C142.35191345 163.12025451 142.35191345 163.12025451 141.72666931 165.12098694 C141.31077936 166.45186728 140.89492639 167.78275917 140.47911072 169.11366272 C139.42586598 172.48462346 138.37194273 175.85536949 137.3167572 179.22572327 C136.89096889 180.58639814 136.46518758 181.9470752 136.03941345 183.30775452 C135.83276062 183.96751282 135.62610779 184.62727112 135.41319275 185.30702209 C133.74351358 190.64562766 132.11196028 195.99546098 130.4964447 201.35072327 C129.60191345 204.12025452 129.60191345 204.12025452 128.6136322 206.48353577 C127.53547307 209.29340995 126.82274636 212.12665236 126.11997986 215.04994202 C125.31097105 218.28292726 124.29668033 221.4442469 123.28941345 224.62025452 C122.84534072 226.02648484 122.40133212 227.43273542 121.9573822 228.83900452 C121.73227966 229.54927795 121.50717712 230.25955139 121.2752533 230.99134827 C120.41678129 233.70558898 119.56754583 236.42265669 118.71983337 239.14027405 C118.30819916 240.45926001 117.89560275 241.77794606 117.48204041 243.09632874 C116.39917033 246.55012775 115.33032241 250.00748385 114.28160095 253.47181702 C114.06310486 254.1872467 113.84460876 254.90267639 113.61949158 255.63978577 C113.2050173 256.99785042 112.7945566 258.35714962 112.38902283 259.71791077 C109.46324451 269.25892346 109.46324451 269.25892346 106.60191345 272.12025452 C105.03644297 272.21352167 103.46678573 272.23771034 101.89854431 272.23377991 C100.89758224 272.23370438 99.89662018 272.23362885 98.86532593 272.23355103 C97.77679825 272.22838974 96.68827057 272.22322845 95.5667572 272.21791077 C94.4583699 272.21649582 93.3499826 272.21508087 92.20800781 272.21362305 C88.65178276 272.20800485 85.09561962 272.19544926 81.53941345 272.18275452 C79.13511748 272.17774186 76.73082053 272.17317855 74.32652283 272.16908264 C68.41829841 272.15802951 62.51011035 272.14127368 56.60191345 272.12025452 C55.80726888 269.91772147 55.01459852 267.71450985 54.2230072 265.51087952 C53.78142273 264.28401428 53.33983826 263.05714905 52.88487244 261.79310608 C51.36938804 257.4545814 50.02818151 253.07837852 48.70347595 248.67884827 C47.15294538 243.66986475 45.47892567 238.70411513 43.79551697 233.73841858 C42.50749711 229.91880325 41.28182878 226.09089721 40.1370697 222.22572327 C38.58043138 216.9814851 36.85458517 211.80173378 35.10191345 206.62025452 C33.0597011 200.58279704 31.1047425 194.53560901 29.29429626 188.42445374 C28.33684678 185.23813206 27.28858763 182.08571306 26.22691345 178.93275452 C25.84792908 177.80482483 25.4689447 176.67689514 25.07847595 175.51478577 C24.85877136 174.86203674 24.63906677 174.20928772 24.41270447 173.53675842 C23.15037938 169.77448991 21.89773549 166.0089982 20.64361572 162.24398804 C19.28011587 158.15180579 17.91331277 154.06074687 16.54350281 149.97067261 C15.57703782 147.08434082 14.61202004 144.19752593 13.64707947 141.3106842 C13.16815365 139.87885401 12.68868435 138.44720546 12.20860291 137.01576233 C11.97552429 136.32063538 11.74244568 135.62550842 11.50230408 134.90931702 C11.26201981 134.19444122 11.02173553 133.47956543 10.77416992 132.74302673 C10.26476742 131.20912345 9.76469749 129.67209712 9.27279663 128.13249207 C7.69154887 123.2152488 5.93649407 118.42580659 4.00254822 113.63539124 C-4.6153395 91.28792813 -4.65528252 69.98270775 -4.14302063 46.25648499 C-4.04587651 41.16328398 -4.01458556 36.06963001 -3.97425842 30.97572327 C-3.90360992 23.58993662 -3.8183225 16.20464145 -3.67030334 8.81996155 C-3.65818817 8.04939423 -3.646073 7.2788269 -3.6335907 6.48490906 C-3.49032101 0.17502574 -3.49032101 0.17502574 0 0 Z " fill="#00FE01" transform="translate(173.39808654785156,113.87974548339844)"/>
<path d="M0 0 C29.37 0 58.74 0 89 0 C89 89.76 89 179.52 89 272 C59.63 272 30.26 272 0 272 C-1.57648153 270.42351847 -1.12540722 268.85271553 -1.12584114 266.66305542 C-1.12844889 265.72116426 -1.13105664 264.77927311 -1.13374341 263.8088398 C-1.13039732 262.23839818 -1.13039732 262.23839818 -1.12698364 260.63623047 C-1.12854363 259.53352247 -1.13010362 258.43081448 -1.13171089 257.29469109 C-1.13572609 253.56884329 -1.13252923 249.84303565 -1.12939453 246.1171875 C-1.13074834 243.45859659 -1.13249174 240.80000852 -1.13470459 238.14141846 C-1.13916299 231.65143264 -1.13818551 225.16145835 -1.13529195 218.67147207 C-1.13303819 213.39928689 -1.13272527 208.12710496 -1.13381577 202.85491943 C-1.133969 202.10599611 -1.13412223 201.35707279 -1.13428011 200.58545482 C-1.13459982 199.06427208 -1.13492403 197.54308935 -1.1352527 196.02190661 C-1.1381077 181.74083151 -1.13482016 167.45976282 -1.12945233 153.17868876 C-1.12498428 140.91144034 -1.1257602 128.64420138 -1.13037109 116.37695312 C-1.13571651 102.14873918 -1.137833 87.92053086 -1.13475883 73.69231606 C-1.13444026 72.17657089 -1.13412589 70.66082573 -1.13381577 69.14508057 C-1.13366149 68.39920649 -1.13350721 67.65333242 -1.13334826 66.8848561 C-1.13248301 61.61592402 -1.13394616 56.3469955 -1.13629532 51.07806396 C-1.13909316 44.66141961 -1.13835541 38.24478749 -1.13301457 31.82814455 C-1.13037733 28.55112444 -1.12990664 25.27412912 -1.13266373 21.99710846 C-1.13537209 18.45264136 -1.13199796 14.90823284 -1.12698364 11.36376953 C-1.12921436 10.31680845 -1.13144509 9.26984737 -1.13374341 8.1911602 C-1.13113566 7.24926905 -1.12852791 6.30737789 -1.12584114 5.33694458 C-1.12567879 4.51767046 -1.12551644 3.69839634 -1.12534916 2.85429573 C-1 1 -1 1 0 0 Z " fill="#00FE01" transform="translate(76,114)"/>
<path d="M0 0 C29.37 0 58.74 0 89 0 C89 89.76 89 179.52 89 272 C59.63 272 30.26 272 0 272 C-1.57648153 270.42351847 -1.12540722 268.85271553 -1.12584114 266.66305542 C-1.12844889 265.72116426 -1.13105664 264.77927311 -1.13374341 263.8088398 C-1.13039732 262.23839818 -1.13039732 262.23839818 -1.12698364 260.63623047 C-1.12854363 259.53352247 -1.13010362 258.43081448 -1.13171089 257.29469109 C-1.13572609 253.56884329 -1.13252923 249.84303565 -1.12939453 246.1171875 C-1.13074834 243.45859659 -1.13249174 240.80000852 -1.13470459 238.14141846 C-1.13916299 231.65143264 -1.13818551 225.16145835 -1.13529195 218.67147207 C-1.13303819 213.39928689 -1.13272527 208.12710496 -1.13381577 202.85491943 C-1.133969 202.10599611 -1.13412223 201.35707279 -1.13428011 200.58545482 C-1.13459982 199.06427208 -1.13492403 197.54308935 -1.1352527 196.02190661 C-1.1381077 181.74083151 -1.13482016 167.45976282 -1.12945233 153.17868876 C-1.12498428 140.91144034 -1.1257602 128.64420138 -1.13037109 116.37695312 C-1.13571651 102.14873918 -1.137833 87.92053086 -1.13475883 73.69231606 C-1.13444026 72.17657089 -1.13412589 70.66082573 -1.13381577 69.14508057 C-1.13366149 68.39920649 -1.13350721 67.65333242 -1.13334826 66.8848561 C-1.13248301 61.61592402 -1.13394616 56.3469955 -1.13629532 51.07806396 C-1.13909316 44.66141961 -1.13835541 38.24478749 -1.13301457 31.82814455 C-1.13037733 28.55112444 -1.12990664 25.27412912 -1.13266373 21.99710846 C-1.13537209 18.45264136 -1.13199796 14.90823284 -1.12698364 11.36376953 C-1.12921436 10.31680845 -1.13144509 9.26984737 -1.13374341 8.1911602 C-1.13113566 7.24926905 -1.12852791 6.30737789 -1.12584114 5.33694458 C-1.12567879 4.51767046 -1.12551644 3.69839634 -1.12534916 2.85429573 C-1 1 -1 1 0 0 Z M2 2 C1.97797384 35.99720092 1.95950228 69.99439494 1.94893467 103.99160084 C1.94768389 108.00099237 1.94638958 112.01038388 1.94506836 116.01977539 C1.94480605 116.81800722 1.94454374 117.61623906 1.94427348 118.43865974 C1.93991658 131.38073922 1.93202893 144.32281428 1.9228472 157.26489114 C1.9135112 170.53463131 1.9079445 183.80436916 1.90591151 197.07411247 C1.90453617 205.26893584 1.90018499 213.46374672 1.89208353 221.65856624 C1.88619609 227.93161554 1.8855409 234.20465522 1.88689232 240.47770691 C1.88661578 243.0589919 1.88460791 245.64027734 1.88079453 248.22155952 C1.87586455 251.7288552 1.87699913 255.23609616 1.87974548 258.74339294 C1.87683264 259.7793633 1.8739198 260.81533365 1.87091869 261.88269705 C1.87290974 262.81475471 1.87490079 263.74681238 1.87695217 264.70711422 C1.87657245 265.51781712 1.87619273 266.32852003 1.8758015 267.16378969 C1.7990123 269.01827103 1.7990123 269.01827103 3 270 C30.72 270 58.44 270 87 270 C87 181.56 87 93.12 87 2 C58.95 2 30.9 2 2 2 Z " fill="#14C60E" transform="translate(76,114)"/>
<path d="M0 0 C30.36 0 60.72 0 92 0 C92 89.76 92 179.52 92 272 C63.62 272 35.24 272 6 272 C4.10271665 270.10271665 4.85437773 266.75349158 4.84178162 264.23606873 C4.83684364 263.52059264 4.83190566 262.80511655 4.82681805 262.06795937 C4.81136886 259.65264921 4.80306249 257.23736577 4.79467773 254.82202148 C4.78510503 253.09775555 4.77509532 251.373492 4.76467896 249.64923096 C4.73755794 244.9531741 4.71658748 240.25710711 4.69667697 235.56101489 C4.67486164 230.65890819 4.64745124 225.75683294 4.62062073 220.85475159 C4.57063342 211.56519385 4.52571707 202.27561871 4.48259836 192.98602682 C4.43327747 182.41302806 4.37834031 171.84006085 4.32291877 161.26709259 C4.20900608 139.51142443 4.10218737 117.75572618 4 96 C3.04213835 98.86170361 2.08524931 101.72372641 1.12890625 104.5859375 C0.72557068 105.79044556 0.72557068 105.79044556 0.31408691 107.01928711 C-1.53918031 112.56919338 -3.30775779 118.13934075 -5.0078125 123.73828125 C-6.33636248 128.10575854 -7.69862646 132.46252731 -9.06787109 136.81738281 C-10.18494719 140.3738234 -11.28517187 143.93425847 -12.359375 147.50390625 C-12.69304077 148.60158325 -12.69304077 148.60158325 -13.03344727 149.72143555 C-13.46090849 151.12891426 -13.88348627 152.53788786 -14.30053711 153.94848633 C-15.20371537 156.90478701 -15.77969669 158.77969669 -18 161 C-17.74097292 159.14414718 -17.46713406 157.29035982 -17.1875 155.4375 C-17.03667969 154.40496094 -16.88585937 153.37242187 -16.73046875 152.30859375 C-16 149 -16 149 -14.51953125 145.5625 C-12.94285665 141.86602896 -12.19069555 138.51344301 -11.5 134.5625 C-10.49552431 129.0883092 -9.09912151 124.15238916 -7 119 C-6.62033354 117.34327363 -6.26239024 115.67929755 -6 114 C-5.34 114 -4.68 114 -4 114 C-3.97421875 113.443125 -3.9484375 112.88625 -3.921875 112.3125 C-3.53533268 107.11174878 -2.44333904 103.51895584 0.08984375 98.98828125 C1.09276962 96.79734019 1.35994124 95.01691723 1.5625 92.625 C1.706875 91.42875 1.85125 90.2325 2 89 C3.485 88.01 3.485 88.01 5 87 C7.43101435 89.43101435 7.23745947 90.70487898 7.25816262 94.02166951 C7.24942409 95.07515987 7.24942409 95.07515987 7.24050903 96.14993286 C7.24221788 96.89484824 7.24392673 97.63976362 7.24568737 98.40725219 C7.24899523 100.91629174 7.23795742 103.42506691 7.22705078 105.93408203 C7.22648695 107.72745762 7.22680268 109.52083367 7.22793579 111.31420898 C7.22851139 116.19414035 7.21672367 121.07397409 7.20278788 125.95388269 C7.19031493 131.04948086 7.18911274 136.14508107 7.18673706 141.24069214 C7.18051216 150.89503989 7.16408772 160.54934253 7.14403808 170.20367038 C7.11753839 183.24597034 7.1067146 196.28828257 7.09503365 209.33060265 C7.07620782 229.88710224 7.03636887 250.44350663 7 271 C34.72 271 62.44 271 91 271 C91 181.9 91 92.8 91 1 C61.3 1 31.6 1 1 1 C0.67 3.97 0.34 6.94 0 10 C-1.07864999 12.91538731 -2.464135 15.27507823 -4 18 C-5.33384217 13.99847349 -4.31990305 11.88822612 -3.125 7.875 C-2.75632812 6.61429687 -2.38765625 5.35359375 -2.0078125 4.0546875 C-1 1 -1 1 0 0 Z " fill="#14B406" transform="translate(333,114)"/>
<path d="M0 0 C0.66 0 1.32 0 2 0 C5.79974564 11.29511235 9.54685327 22.593294 13 34 C15.82957151 43.20579773 18.77132509 52.36452122 21.8371582 61.49438477 C23.64229469 66.88532964 25.35597865 72.29815075 27.0078125 77.73828125 C28.13248971 81.43554689 29.28266437 85.12457684 30.4375 88.8125 C30.75170898 89.8168811 30.75170898 89.8168811 31.07226562 90.84155273 C31.7145791 92.89445143 32.35723685 94.94724205 33 97 C37.72052339 112.0756806 37.72052339 112.0756806 40 119.5 C43.54675485 131.04125471 47.1231211 142.56429016 51 154 C53.8089615 146.6471302 56.23111785 139.19843167 58.57226562 131.6875 C60.5099157 125.49281821 62.54967415 119.33727288 64.625 113.1875 C66.95464431 106.26958132 69.09344772 99.34736737 71.04296875 92.3125 C72.45074454 87.43987194 74.09035925 82.65155995 75.71484375 77.84765625 C77.03135931 73.93603799 78.2746754 70.00351267 79.5 66.0625 C79.70689453 65.39734375 79.91378906 64.7321875 80.12695312 64.046875 C80.95655731 61.37456743 81.78344157 58.70142703 82.60888672 56.02783203 C85.266766 47.42452739 88.027707 38.86446327 90.89672852 30.32910156 C92.71012316 24.91807954 94.42839083 19.48684605 96 14 C97.13891014 17.65905173 96.63304133 20.09246204 95.6015625 23.78515625 C94.98573333 26.0525273 94.52093874 28.32115107 94.0625 30.625 C93.23282149 34.44674748 91.7816099 37.51101394 90 41 C88.20105774 47.24338784 87.10557211 53.60179544 86 60 C85.34 60 84.68 60 84 60 C83.85739746 60.58177002 83.71479492 61.16354004 83.56787109 61.76293945 C82.67913237 65.26401982 81.64427632 68.72271273 80.625 72.1875 C80.28782959 73.33750488 80.28782959 73.33750488 79.94384766 74.51074219 C78.82929594 78.28689797 77.68060471 82.03458235 76.375 85.75 C75.14869105 89.2850582 74.35038516 92.84286458 73.5625 96.5 C72.50026974 101.30798962 71.05655976 105.43899153 68.91796875 109.85546875 C67.38580547 113.43486297 66.68612133 117.1811931 66 121 C65.34 121 64.68 121 64 121 C63.81824219 122.00160156 63.63648438 123.00320312 63.44921875 124.03515625 C63.19573451 125.37768391 62.94180432 126.72012743 62.6875 128.0625 C62.56955078 128.71927734 62.45160156 129.37605469 62.33007812 130.05273438 C61.43270654 134.72366853 59.92689617 138.65544322 58 143 C57.35892583 145.34151666 57.35892583 145.34151666 57 147.5 C56.16050925 151.64765344 54.79197249 155.17169513 53 159 C51.68 159 50.36 159 49 159 C48.61714844 157.62908203 48.61714844 157.62908203 48.2265625 156.23046875 C47.28935672 152.94694267 46.28940716 149.68576158 45.2734375 146.42578125 C44.9640625 145.42869141 44.6546875 144.43160156 44.3359375 143.40429688 C43.69130185 141.33019476 43.04281518 139.25728592 42.390625 137.18554688 C42.08382812 136.19232422 41.77703125 135.19910156 41.4609375 134.17578125 C41.04013916 132.82867065 41.04013916 132.82867065 40.61083984 131.4543457 C40 129 40 129 40 125 C39.34 125 38.68 125 38 125 C37.82984375 124.10539062 37.6596875 123.21078125 37.484375 122.2890625 C36.16110619 115.68679575 34.65289788 109.56680618 31.9765625 103.38671875 C30.60833805 100.0427782 29.66114106 96.61112281 28.7109375 93.12890625 C28.01715895 90.74126982 28.01715895 90.74126982 26 88 C25.3671875 85.87890625 25.3671875 85.87890625 24.875 83.5625 C24.70742187 82.80066406 24.53984375 82.03882813 24.3671875 81.25390625 C24 79 24 79 24 75 C23.01 75 22.02 75 21 75 C20.82984375 73.87722656 20.6596875 72.75445312 20.484375 71.59765625 C18.80548776 60.98978761 18.80548776 60.98978761 14.90234375 51.0390625 C13.85847503 48.68019034 13.43355152 46.47742127 13 43.9375 C12.27997684 39.77808047 10.96510792 36.63364109 8.9453125 32.953125 C7.93093916 30.85731232 7.38882801 28.89236804 6.875 26.625 C6.32886904 22.9812357 6.32886904 22.9812357 4 21 C3.40106626 18.79053632 2.89286663 16.55595551 2.4375 14.3125 C2.18871094 13.11238281 1.93992188 11.91226563 1.68359375 10.67578125 C1.02246714 7.12080902 0.48287188 3.5824495 0 0 Z " fill="#1DCA14" transform="translate(231,118)"/>
<path d="M0 0 C4.80970729 3.64874346 5.50422587 8.45489259 7 14 C7.44594182 15.37906865 7.90405737 16.75426754 8.375 18.125 C9.36025757 21.02891704 10.2964293 23.94343102 11.1953125 26.875 C11.41010254 27.57351074 11.62489258 28.27202148 11.84619141 28.99169922 C12.2709857 30.37775318 12.69271143 31.76475264 13.11083984 33.15283203 C14.08005569 36.30959528 15.11764316 39.2641481 16.46484375 42.2890625 C19.00134303 48.01931136 20.27842665 54.20850639 21.83789062 60.2578125 C22.08861328 61.20914063 22.33933594 62.16046875 22.59765625 63.140625 C22.81945557 64.00204102 23.04125488 64.86345703 23.26977539 65.75097656 C23.9669675 68.24364216 23.9669675 68.24364216 26 71 C26.5625 73.0859375 26.5625 73.0859375 27 75.375 C27.54223098 78.03021044 28.11361912 80.28404779 29.125 82.8125 C30 85 30 85 30 89 C30.66 89 31.32 89 32 89 C32.17015625 89.73863281 32.3403125 90.47726562 32.515625 91.23828125 C34.38920672 99.08141325 36.86020665 106.50073108 39.78125 114.0078125 C46.36994639 131.12409986 46.36994639 131.12409986 46 138 C46.66 138 47.32 138 48 138 C48.12117188 138.68707031 48.24234375 139.37414062 48.3671875 140.08203125 C48.61855469 141.43361328 48.61855469 141.43361328 48.875 142.8125 C49.03742188 143.70582031 49.19984375 144.59914063 49.3671875 145.51953125 C49.91188449 148.22727846 49.91188449 148.22727846 52 151 C52.495 153.475 52.495 153.475 53 156 C68.84 156 84.68 156 101 156 C103.69618098 147.38940173 103.69618098 147.38940173 106.0625 138.6875 C106.74749471 135.99318747 107.47994922 133.6776644 108.5 131.125 C110.00119362 127.29695626 110.72841327 123.48802143 111.46484375 119.453125 C112.12454438 116.42909584 113.18299509 113.6854796 114.34375 110.82421875 C115.14433591 108.77260639 115.14433591 108.77260639 115.5625 105.5625 C115.706875 104.716875 115.85125 103.87125 116 103 C116.66 102.67 117.32 102.34 118 102 C118.8013619 99.14258915 119.49708506 96.33288557 120.125 93.4375 C120.30675781 92.63119141 120.48851562 91.82488281 120.67578125 90.99414062 C121.12467118 88.99776175 121.56329743 86.9990802 122 85 C122.99 85 123.98 85 125 85 C125.33 84.34 125.66 83.68 126 83 C125.40814911 86.78784572 124.25369598 90.11527009 122.81640625 93.64453125 C121.87611295 96.35743488 121.21240994 99.11327584 120.53344727 101.90112305 C119.71001172 105.14097447 118.69788499 108.31416069 117.6875 111.5 C117.24342727 112.90623032 116.79941867 114.3124809 116.35546875 115.71875 C116.13036621 116.42902344 115.90526367 117.13929688 115.67333984 117.87109375 C114.81486784 120.58533446 113.96563238 123.30240218 113.11791992 126.02001953 C112.70628571 127.33900549 112.2936893 128.65769155 111.88012695 129.97607422 C110.79725688 133.42987323 109.72840895 136.88722933 108.6796875 140.3515625 C108.46119141 141.06699219 108.24269531 141.78242188 108.01757812 142.51953125 C107.60310385 143.87759591 107.19264314 145.2368951 106.78710938 146.59765625 C103.86133105 156.13866895 103.86133105 156.13866895 101 159 C99.43452952 159.09326716 97.86487228 159.11745582 96.29663086 159.11352539 C95.29566879 159.11344986 94.29470673 159.11337433 93.26341248 159.11329651 C92.1748848 159.10813522 91.08635712 159.10297394 89.96484375 159.09765625 C88.85645645 159.0962413 87.74806915 159.09482635 86.60609436 159.09336853 C83.04986931 159.08775033 79.49370617 159.07519475 75.9375 159.0625 C73.53320403 159.05748734 71.12890708 159.05292403 68.72460938 159.04882812 C62.81638496 159.03777499 56.9081969 159.02101917 51 159 C50.20535543 156.79746695 49.41268507 154.59425533 48.62109375 152.390625 C48.17950928 151.16375977 47.7379248 149.93689453 47.28295898 148.67285156 C45.76747459 144.33432688 44.42626806 139.95812401 43.1015625 135.55859375 C41.55103193 130.54961024 39.87701221 125.58386061 38.19360352 120.61816406 C36.90558366 116.79854873 35.67991532 112.9706427 34.53515625 109.10546875 C32.97851793 103.86123058 31.25267172 98.68147927 29.5 93.5 C27.45778765 87.46254253 25.50282905 81.41535449 23.69238281 75.30419922 C22.73493332 72.11787754 21.68667418 68.96545855 20.625 65.8125 C20.24601562 64.68457031 19.86703125 63.55664062 19.4765625 62.39453125 C19.25613281 61.73984863 19.03570312 61.08516602 18.80859375 60.41064453 C17.77578889 57.33156387 16.75171463 54.24960573 15.7265625 51.16796875 C14.06815527 46.1843784 12.39558753 41.20581713 10.70950317 36.23152161 C9.65313661 33.11286834 8.60172792 29.99255359 7.55078125 26.87207031 C7.0118534 25.27566086 6.47079793 23.67996826 5.92773438 22.08496094 C5.12840197 19.73561045 4.33692626 17.38373532 3.546875 15.03125 C3.30523621 14.32697876 3.06359741 13.62270752 2.81463623 12.89709473 C1.37927571 8.59294884 0.51275917 4.51051761 0 0 Z " fill="#16C70F" transform="translate(179,227)"/>
<path d="M0 0 C30.36 0 60.72 0 92 0 C92 89.76 92 179.52 92 272 C91.01 271.67 90.02 271.34 89 271 C89.66 271 90.32 271 91 271 C91 181.9 91 92.8 91 1 C61.3 1 31.6 1 1 1 C0.67 3.97 0.34 6.94 0 10 C-1.07864999 12.91538731 -2.464135 15.27507823 -4 18 C-5.33384217 13.99847349 -4.31990305 11.88822612 -3.125 7.875 C-2.75632812 6.61429687 -2.38765625 5.35359375 -2.0078125 4.0546875 C-1 1 -1 1 0 0 Z " fill="#26B61C" transform="translate(333,114)"/>
<path d="M0 0 C1.06367294 0.00222061 2.12734589 0.00444122 3.22325134 0.00672913 C5.02500572 0.00684242 5.02500572 0.00684242 6.86315918 0.00695801 C8.17042465 0.01211929 9.47769012 0.01728058 10.8245697 0.02259827 C12.16835477 0.02446253 13.51214052 0.02588639 14.85592651 0.02688599 C18.39873622 0.0307105 21.94150515 0.0405402 25.48429871 0.05158997 C29.09706572 0.06180552 32.7098393 0.06638392 36.32261658 0.07142639 C43.41573225 0.08216254 50.50882019 0.09923816 57.60191345 0.12025452 C57.60191345 0.45025452 57.60191345 0.78025452 57.60191345 1.12025452 C38.13191345 1.12025452 18.66191345 1.12025452 -1.39808655 1.12025452 C-1.27838529 17.06761547 -1.27838529 17.06761547 -1.14027405 33.01478577 C-1.0798822 39.51556851 -1.02168181 46.01632071 -0.97621155 52.51722717 C-0.93943307 57.75629314 -0.89309373 62.99519403 -0.84002304 68.23411942 C-0.82143942 70.23643738 -0.80634626 72.23879077 -0.79474258 74.24116135 C-0.77794778 77.03810919 -0.74892972 79.83467566 -0.7169342 82.63148499 C-0.71477402 83.4658609 -0.71261383 84.30023682 -0.71038818 85.15989685 C-0.82721569 89.61153908 -0.82721569 89.61153908 1.60191345 93.12025452 C4.10896576 99.66238006 6.25714564 106.07650846 5.60191345 113.12025452 C-3.31798443 99.74040769 -4.40747206 83.40696015 -4.11683655 67.85462952 C-4.10627704 65.91407123 -4.09873009 63.97349449 -4.0940094 62.03291321 C-4.07326917 57.00232653 -4.00969893 51.97319712 -3.93702698 46.94313049 C-3.88461726 42.80736322 -3.8630819 38.67168799 -3.84290314 34.53565598 C-3.80094272 26.01645353 -3.7403426 17.49716715 -3.62269592 8.97865295 C-3.61529388 8.19237518 -3.60789185 7.40609741 -3.6002655 6.59599304 C-3.49656731 0.17533896 -3.49656731 0.17533896 0 0 Z " fill="#11AD0B" transform="translate(173.39808654785156,113.87974548339844)"/>
<path d="M0 0 C1.13891014 3.65905173 0.63304133 6.09246204 -0.3984375 9.78515625 C-1.01426667 12.0525273 -1.47906126 14.32115107 -1.9375 16.625 C-2.76717851 20.44674748 -4.2183901 23.51101394 -6 27 C-7.79894226 33.24338784 -8.89442789 39.60179544 -10 46 C-10.66 46 -11.32 46 -12 46 C-12.14260254 46.58177002 -12.28520508 47.16354004 -12.43212891 47.76293945 C-13.32086763 51.26401982 -14.35572368 54.72271273 -15.375 58.1875 C-15.59978027 58.95416992 -15.82456055 59.72083984 -16.05615234 60.51074219 C-17.17070406 64.28689797 -18.31939529 68.03458235 -19.625 71.75 C-20.85130895 75.2850582 -21.64961484 78.84286458 -22.4375 82.5 C-23.49973026 87.30798962 -24.94344024 91.43899153 -27.08203125 95.85546875 C-28.61419453 99.43486297 -29.31387867 103.1811931 -30 107 C-30.66 107 -31.32 107 -32 107 C-32.66 109.97 -33.32 112.94 -34 116 C-34.66 116 -35.32 116 -36 116 C-36.495 116.99 -36.495 116.99 -37 118 C-36.25342083 113.76397469 -35.05038422 109.71696181 -33.75 105.625 C-33.41730103 104.56889526 -33.41730103 104.56889526 -33.07788086 103.49145508 C-31.22681911 97.64534305 -29.28397247 91.83136915 -27.328125 86.01953125 C-25.49294389 80.51538243 -23.77358525 74.97382626 -22.05493164 69.43237305 C-21.0811366 66.31366369 -20.10122702 63.25200574 -18.8828125 60.21875 C-18.00520222 58.0130746 -17.50376256 55.95318529 -17.0625 53.625 C-16.19226419 49.47938844 -14.69615527 45.8870225 -13 42 C-12.50255429 40.04079786 -12.00691689 38.08105842 -11.53125 36.11645508 C-10.72715524 32.91300955 -9.74062027 29.77517245 -8.75 26.625 C-8.53964111 25.95597656 -8.32928223 25.28695312 -8.11254883 24.59765625 C-5.50787263 16.36578036 -2.75582513 8.18224368 0 0 Z " fill="#13AD0B" transform="translate(327,132)"/>
<path d="M0 0 C0.66 0 1.32 0 2 0 C5.79974564 11.29511235 9.54685327 22.593294 13 34 C15.59098304 42.4295681 18.2562078 50.82695891 21.0625 59.1875 C22.878961 64.61708189 24.69383598 70.04654046 26.4375 75.5 C26.76621094 76.5209375 27.09492188 77.541875 27.43359375 78.59375 C28 81 28 81 27 83 C24.37613513 79.93882432 24 79.26826873 24 75 C23.01 75 22.02 75 21 75 C20.82984375 73.87722656 20.6596875 72.75445312 20.484375 71.59765625 C18.80548776 60.98978761 18.80548776 60.98978761 14.90234375 51.0390625 C13.85847503 48.68019034 13.43355152 46.47742127 13 43.9375 C12.27997684 39.77808047 10.96510792 36.63364109 8.9453125 32.953125 C7.93093916 30.85731232 7.38882801 28.89236804 6.875 26.625 C6.32886904 22.9812357 6.32886904 22.9812357 4 21 C3.40106626 18.79053632 2.89286663 16.55595551 2.4375 14.3125 C2.18871094 13.11238281 1.93992188 11.91226563 1.68359375 10.67578125 C1.02246714 7.12080902 0.48287188 3.5824495 0 0 Z " fill="#18D311" transform="translate(231,118)"/>
<path d="M0 0 C19.8 0 39.6 0 60 0 C59.67 1.32 59.34 2.64 59 4 C58.28705276 3.67657623 57.57410553 3.35315247 56.83955383 3.01992798 C53.88475338 1.95860503 51.69266318 1.72590926 48.56713867 1.68115234 C46.95397766 1.65106079 46.95397766 1.65106079 45.30822754 1.62036133 C44.18944214 1.60900146 43.07065674 1.5976416 41.91796875 1.5859375 C40.3626947 1.55947144 40.3626947 1.55947144 38.77600098 1.5324707 C34.91332332 1.46953904 31.05038884 1.42325895 27.1875 1.375 C18.545625 1.25125 9.90375 1.1275 1 1 C1 30.7 1 60.4 1 91 C0.67 91 0.34 91 0 91 C0 60.97 0 30.94 0 0 Z " fill="#12EF0C" transform="translate(172,115)"/>
<path d="M0 0 C0.85667267 0.00359528 1.71334534 0.00719055 2.59597778 0.01089478 C3.4934523 0.01074875 4.39092682 0.01060272 5.31559753 0.01045227 C8.29702123 0.01115175 11.27838329 0.01894575 14.25979614 0.02676392 C16.32102932 0.02862797 18.38226293 0.03005193 20.4434967 0.03105164 C25.88017999 0.03487779 31.31683675 0.04470891 36.75350952 0.05575562 C42.29661704 0.06596764 47.83972882 0.07054881 53.38284302 0.07559204 C64.26762033 0.08633109 75.15237791 0.10340868 86.03713989 0.12442017 C86.03713989 0.45442017 86.03713989 0.78442017 86.03713989 1.12442017 C56.00713989 1.12442017 25.97713989 1.12442017 -4.96286011 1.12442017 C-5.29286011 4.09442017 -5.62286011 7.06442017 -5.96286011 10.12442017 C-7.04151009 13.03980748 -8.42699511 15.3994984 -9.96286011 18.12442017 C-11.29670228 14.12289366 -10.28276316 12.01264628 -9.08786011 7.99942017 C-8.71918823 6.73871704 -8.35051636 5.47801392 -7.97067261 4.17910767 C-6.3359479 -0.77575558 -5.00000184 0.00886335 0 0 Z " fill="#14BE0B" transform="translate(338.9628601074219,113.87557983398438)"/>
<path d="M0 0 C0.33 0 0.66 0 1 0 C0.55733408 5.5775906 -0.28135978 10.38823713 -2.16796875 15.6484375 C-3.60671046 19.71474035 -4.78227056 23.86317444 -6 28 C-7.32 27.34 -8.64 26.68 -10 26 C-9.55732788 25.15526123 -9.55732788 25.15526123 -9.10571289 24.29345703 C-7.9976588 21.99514391 -7.13765692 19.71672729 -6.30859375 17.3046875 C-6.00373047 16.42425781 -5.69886719 15.54382813 -5.38476562 14.63671875 C-4.91586914 13.26966797 -4.91586914 13.26966797 -4.4375 11.875 C-3.81238308 10.05948732 -3.18613583 8.24436333 -2.55859375 6.4296875 C-2.28329834 5.62772949 -2.00800293 4.82577148 -1.72436523 3.99951172 C-1 2 -1 2 0 0 Z " fill="#14CB0B" transform="translate(291,248)"/>
<path d="M0 0 C1.20717301 3.62151904 0.69362334 4.41449021 -0.6875 7.875 C-2.77826756 13.29363287 -4.46468339 18.76776337 -6.0703125 24.34765625 C-7 27 -7 27 -9 29 C-8.04512516 22.15860264 -6.89093904 16.26370126 -4 10 C-3.23224543 7.34818514 -2.61429014 4.69342602 -2 2 C-1.34 2 -0.68 2 0 2 C0 1.34 0 0.68 0 0 Z " fill="#12A50C" transform="translate(324,246)"/>
<path d="M0 0 C2 1 2 1 2.76196289 2.70239258 C2.9964917 3.42579834 3.23102051 4.1492041 3.47265625 4.89453125 C3.73240234 5.68537109 3.99214844 6.47621094 4.25976562 7.29101562 C4.52466797 8.12310547 4.78957031 8.95519531 5.0625 9.8125 C5.33126953 10.63298828 5.60003906 11.45347656 5.87695312 12.29882812 C7.90009216 18.51960226 7.90009216 18.51960226 8.45874023 21.20581055 C8.63735596 21.79789307 8.81597168 22.38997559 9 23 C9.66 23.33 10.32 23.66 11 24 C11 24.66 11 25.32 11 26 C9.68 26 8.36 26 7 26 C6.72414063 25.01515625 6.44828125 24.0303125 6.1640625 23.015625 C5.38952797 20.3027051 4.57038133 17.60907791 3.7109375 14.921875 C3.49179687 14.23609375 3.27265625 13.5503125 3.046875 12.84375 C2.59368234 11.4314752 2.13789337 10.02003126 1.6796875 8.609375 C0.73077669 5.62708388 0 3.15020957 0 0 Z " fill="#1DD412" transform="translate(273,251)"/>
<path d="M0 0 C0.99 0.495 0.99 0.495 2 1 C2.5625 2.890625 2.5625 2.890625 3 5.25 C3.53932494 7.95090505 4.09741347 10.24353367 5.125 12.8125 C6 15 6 15 6 19 C6.66 19 7.32 19 8 19 C8.33 21.64 8.66 24.28 9 27 C4.74076149 23.3596252 3.70192744 18.16372028 2 13 C1.76925781 12.31808594 1.53851563 11.63617188 1.30078125 10.93359375 C0.12551406 7.20774671 -0.18996594 3.89430172 0 0 Z " fill="#1ACF13" transform="translate(203,297)"/>
<path d="M0 0 C0.99 0.33 1.98 0.66 3 1 C4.05895668 3.39234721 4.90390195 5.64400074 5.6875 8.125 C5.91244141 8.77726563 6.13738281 9.42953125 6.36914062 10.1015625 C7.80764984 14.50890987 8.22502745 18.31699635 8 23 C5.55667033 19.33500549 4.31858597 15.63735885 2.875 11.5 C2.59785156 10.72785156 2.32070312 9.95570313 2.03515625 9.16015625 C1.77347656 8.41636719 1.51179687 7.67257813 1.2421875 6.90625 C1.0035498 6.22884766 0.76491211 5.55144531 0.51904297 4.85351562 C0 3 0 3 0 0 Z " fill="#11C80C" transform="translate(171,204)"/>
<path d="M0 0 C1.93166016 0.01740234 1.93166016 0.01740234 3.90234375 0.03515625 C5.19269531 0.04417969 6.48304688 0.05320312 7.8125 0.0625 C8.81152344 0.07410156 9.81054688 0.08570312 10.83984375 0.09765625 C10.83984375 0.42765625 10.83984375 0.75765625 10.83984375 1.09765625 C6.54984375 1.09765625 2.25984375 1.09765625 -2.16015625 1.09765625 C-2.24265625 2.41765625 -2.32515625 3.73765625 -2.41015625 5.09765625 C-2.94679635 10.15168468 -4.67833302 13.69442149 -7.16015625 18.09765625 C-8.49399842 14.09612974 -7.4800593 11.98588237 -6.28515625 7.97265625 C-5.91648437 6.71195312 -5.5478125 5.45125 -5.16796875 4.15234375 C-3.83713505 0.11857648 -3.83713505 0.11857648 0 0 Z " fill="#0FB109" transform="translate(336.16015625,113.90234375)"/>
<path d="M0 0 C1.37152537 4.11457612 -0.01239634 7.03979265 -1.3125 11 C-1.53873047 11.72445313 -1.76496094 12.44890625 -1.99804688 13.1953125 C-3.04778745 16.47461736 -4.07935798 19.11903696 -6 22 C-6 18.7 -6 15.4 -6 12 C-5.34 12 -4.68 12 -4 12 C-4 10.02 -4 8.04 -4 6 C-3.34 6 -2.68 6 -2 6 C-2 4.68 -2 3.36 -2 2 C-1.34 2 -0.68 2 0 2 C0 1.34 0 0.68 0 0 Z " fill="#14C60C" transform="translate(311,286)"/>
<path d="M0 0 C2.27100843 3.40651264 3.32631727 6.81434699 4.5 10.6875 C4.71269531 11.37005859 4.92539062 12.05261719 5.14453125 12.75585938 C6.59527165 17.46854062 7.83831681 22.20805684 9 27 C8.01 26.67 7.02 26.34 6 26 C5.67 23.36 5.34 20.72 5 18 C4.34 18 3.68 18 3 18 C2.49490792 15.75113762 1.99610821 13.50086131 1.5 11.25 C1.2215625 9.99703125 0.943125 8.7440625 0.65625 7.453125 C0 4 0 4 0 0 Z " fill="#1CC713" transform="translate(266,225)"/>
<path d="M0 0 C1.2078975 3.6236925 0.69261378 4.29966438 -0.8125 7.6875 C-2.16642099 10.87921753 -3.33533825 13.9355725 -4.125 17.3125 C-4.85557381 20.39134677 -5.7359941 23.11084365 -7 26 C-8.09180878 22.69470655 -7.88297902 20.57913968 -7.00390625 17.234375 C-6.66069336 15.90019531 -6.66069336 15.90019531 -6.31054688 14.5390625 C-5.94026367 13.15847656 -5.94026367 13.15847656 -5.5625 11.75 C-5.31951172 10.81414062 -5.07652344 9.87828125 -4.82617188 8.9140625 C-4.22587133 6.6070251 -3.61689335 4.30264561 -3 2 C-2.01 2 -1.02 2 0 2 C0 1.34 0 0.68 0 0 Z " fill="#18B610" transform="translate(304,310)"/>
<path d="M0 0 C2.30471162 3.45706743 3.32983833 6.93900164 4.5 10.875 C6.15840719 16.43204224 6.15840719 16.43204224 8.1796875 21.86328125 C9.13819252 24.35995861 8.91491913 25.52971836 8 28 C4.84333759 23.15978431 3.40523048 19.11510404 2.4375 13.4296875 C2.04648673 11.25816737 1.52550076 9.23009275 0.875 7.125 C0 4 0 4 0 0 Z " fill="#16B10E" transform="translate(241,146)"/>
<path d="M0 0 C0.99 0.33 1.98 0.66 3 1 C3.87890625 3.36328125 3.87890625 3.36328125 4.5625 6.3125 C5.50083047 10.33303914 5.50083047 10.33303914 7.08203125 14.12109375 C8.50162451 17.02672931 8.12208318 19.82583744 8 23 C5.45468015 20.45468015 5.02266022 18.31848872 4 14.875 C3.65453125 13.71355469 3.3090625 12.55210937 2.953125 11.35546875 C1.8823036 7.58565079 0.89752269 3.81447142 0 0 Z " fill="#14B80D" transform="translate(210,323)"/>
<path d="M0 0 C0.66 0 1.32 0 2 0 C3.03551045 2.93253346 4.05081838 5.87166938 5.0625 8.8125 C5.35705078 9.64587891 5.65160156 10.47925781 5.95507812 11.33789062 C6.3659668 12.54155273 6.3659668 12.54155273 6.78515625 13.76953125 C7.04176025 14.50792236 7.29836426 15.24631348 7.56274414 16.00708008 C8 18 8 18 7 21 C5.82181449 18.44225544 4.65734345 15.87965758 3.5 13.3125 C3.16613281 12.59126953 2.83226562 11.87003906 2.48828125 11.12695312 C0.76922841 7.28539628 -0.47556626 4.30557312 0 0 Z " fill="#16AB0D" transform="translate(231,118)"/>
<path d="M0 0 C0.33 0 0.66 0 1 0 C1 2.64 1 5.28 1 8 C0.34 8 -0.32 8 -1 8 C-1.12375 8.53625 -1.2475 9.0725 -1.375 9.625 C-2.12206016 12.4638286 -3.05303364 15.22223202 -4 18 C-4.33 18 -4.66 18 -5 18 C-5.77001757 11.0698419 -3.0898056 6.10236607 0 0 Z " fill="#14C50D" transform="translate(316,170)"/>
<path d="M0 0 C0.99 0.33 1.98 0.66 3 1 C4.16796875 3.984375 4.16796875 3.984375 5.1875 7.75 C5.53167969 8.98234375 5.87585938 10.2146875 6.23046875 11.484375 C6.88746147 14.4858646 7.16867859 16.95215233 7 20 C4.42178861 17.42178861 3.97565192 15.17300626 2.9375 11.6875 C2.59589844 10.55699219 2.25429687 9.42648437 1.90234375 8.26171875 C1.1421218 5.51373032 0.51015719 2.80323486 0 0 Z " fill="#17B711" transform="translate(196,280)"/>
<path d="M0 0 C1.13719823 3.65355175 0.63638712 6.08174944 -0.39453125 9.76953125 C-1.23189655 12.85427698 -1.82555334 15.98096088 -2.4375 19.1171875 C-3 21 -3 21 -5 23 C-5.84381994 14.73056456 -2.78872975 7.6490873 0 0 Z " fill="#14BB0B" transform="translate(327,132)"/>
<path d="M0 0 C0.66 0 1.32 0 2 0 C2.20705455 5.07283639 1.72487541 9.20867943 0 14 C-0.99 14.495 -0.99 14.495 -2 15 C-3.13350534 17.01669827 -3.13350534 17.01669827 -4 19 C-4.33 18.34 -4.66 17.68 -5 17 C-4.34317313 15.66179199 -3.67389329 14.32969548 -3 13 C-2.41076456 10.76198651 -1.87225083 8.51023105 -1.375 6.25 C-1.11460937 5.07953125 -0.85421875 3.9090625 -0.5859375 2.703125 C-0.39257812 1.81109375 -0.19921875 0.9190625 0 0 Z " fill="#17E00E" transform="translate(295,330)"/>
<path d="M0 0 C0.33 0 0.66 0 1 0 C1.39106321 5.21417611 0.27894574 9.35847748 -2 14 C-2.66 14.66 -3.32 15.32 -4 16 C-4.46450943 9.49686791 -3.32575612 5.5825192 0 0 Z " fill="#13D10B" transform="translate(304,208)"/>
<path d="M0 0 C4.35691171 5.20018495 5.12778626 8.22732836 5 15 C2.82813579 12.82813579 2.3206752 11.50023469 1.375 8.625 C1.11460937 7.85414063 0.85421875 7.08328125 0.5859375 6.2890625 C0 4 0 4 0 0 Z " fill="#15B90F" transform="translate(185,245)"/>
<path d="M0 0 C5.94 0 11.88 0 18 0 C17.67 1.32 17.34 2.64 17 4 C15.95779297 3.52433594 15.95779297 3.52433594 14.89453125 3.0390625 C11.73811356 1.90598948 9.02719833 1.59519989 5.6875 1.375 C4.08455078 1.26285156 4.08455078 1.26285156 2.44921875 1.1484375 C1.23685547 1.07496094 1.23685547 1.07496094 0 1 C0 0.67 0 0.34 0 0 Z " fill="#15E310" transform="translate(214,115)"/>
<path d="M0 0 C1.73246868 3.46493736 0.76936705 7.29783208 0 11 C-1.5625 13.5625 -1.5625 13.5625 -3 15 C-3.36263859 9.1977825 -2.25684543 5.36000789 0 0 Z " fill="#15E10D" transform="translate(326,233)"/>
<path d="M0 0 C0.33 0 0.66 0 1 0 C0.85892253 1.45880109 0.71197585 2.91703551 0.5625 4.375 C0.48128906 5.18710938 0.40007812 5.99921875 0.31640625 6.8359375 C0 9 0 9 -1 11 C-1.66 11 -2.32 11 -3 11 C-2.53199289 6.94393835 -2.12046792 3.53411321 0 0 Z " fill="#17D410" transform="translate(291,248)"/>
<path d="M0 0 C0.33 0 0.66 0 1 0 C1.99 4.29 2.98 8.58 4 13 C3.01 12.67 2.02 12.34 1 12 C0.03929566 9.11788698 -0.10581883 7.30149956 -0.0625 4.3125 C-0.05347656 3.50425781 -0.04445312 2.69601562 -0.03515625 1.86328125 C-0.02355469 1.24839844 -0.01195312 0.63351562 0 0 Z " fill="#16DB0F" transform="translate(218,340)"/>
<path d="M0 0 C0.33 0 0.66 0 1 0 C1.38281159 5.23175837 0.21854707 8.37802694 -2 13 C-3.08828929 9.73513213 -2.89901381 8.63009917 -2.125 5.375 C-1.94195312 4.57835937 -1.75890625 3.78171875 -1.5703125 2.9609375 C-1 1 -1 1 0 0 Z " fill="#18BD10" transform="translate(318,262)"/>
<path d="M0 0 C1.31538327 4.15771494 0.34433068 6.8879297 -1 11 C-1.66 11 -2.32 11 -3 11 C-3.33 11.66 -3.66 12.32 -4 13 C-3.27991594 8.39146203 -1.68704061 4.32762591 0 0 Z " fill="#0EA209" transform="translate(294,237)"/>
<path d="M0 0 C4.76132597 4.30055249 4.76132597 4.30055249 5 8 C4.01 9.485 4.01 9.485 3 11 C2.49384702 9.73160474 1.99530901 8.46016898 1.5 7.1875 C1.2215625 6.47980469 0.943125 5.77210938 0.65625 5.04296875 C0 3 0 3 0 0 Z " fill="#10A60C" transform="translate(226,372)"/>
<path d="M0 0 C1.13643966 3.40931897 0.86747764 4.00335456 -0.4375 7.1875 C-0.86869141 8.26064453 -0.86869141 8.26064453 -1.30859375 9.35546875 C-1.53675781 9.89816406 -1.76492188 10.44085938 -2 11 C-2.33 11 -2.66 11 -3 11 C-2.67 8.03 -2.34 5.06 -2 2 C-1.34 2 -0.68 2 0 2 C0 1.34 0 0.68 0 0 Z " fill="#1BAB0C" transform="translate(284,373)"/>
<path d="M0 0 C2.45823172 3.68734758 3.01242616 6.69699971 4 11 C3.01 10.67 2.02 10.34 1 10 C0.67 6.7 0.34 3.4 0 0 Z " fill="#16AE0C" transform="translate(271,241)"/>
<path d="M0 0 C0.33 0 0.66 0 1 0 C0.67 2.97 0.34 5.94 0 9 C-0.66 9 -1.32 9 -2 9 C-2 6.69 -2 4.38 -2 2 C-1.34 2 -0.68 2 0 2 C0 1.34 0 0.68 0 0 Z " fill="#18D40E" transform="translate(297,230)"/>
<path d="M0 0 C3 1 3 1 4 3 C4.04022391 5.3329866 4.04320247 7.66706666 4 10 C1.81024227 6.71536341 1.00193437 3.79303725 0 0 Z " fill="#10AA0B" transform="translate(175,217)"/>
<path d="M0 0 C0.66 0 1.32 0 2 0 C2.33 2.97 2.66 5.94 3 9 C2.67 8.34 2.34 7.68 2 7 C1.34 7 0.68 7 0 7 C0 4.69 0 2.38 0 0 Z " fill="#1AD312" transform="translate(225,365)"/>
<path d="M0 0 C2.18975773 3.28463659 2.99806563 6.20696275 4 10 C2 8.375 2 8.375 0 6 C-0.25 2.75 -0.25 2.75 0 0 Z " fill="#17A70D" transform="translate(255,191)"/>
</svg>
